<?xml version="1.0" encoding="iso-8859-1"?>
<!-- Generator: Adobe Illustrator 18.0.0, SVG Export Plug-In . SVG Version: 6.00 Build 0)  -->
<!DOCTYPE svg PUBLIC "-//W3C//DTD SVG 1.1//EN" "http://www.w3.org/Graphics/SVG/1.1/DTD/svg11.dtd">
<svg version="1.1" id="Capa_1" xmlns="http://www.w3.org/2000/svg" xmlns:xlink="http://www.w3.org/1999/xlink" x="0px" y="0px"
	 viewBox="0 0 457.157 457.157" style="enable-background:new 0 0 457.157 457.157;" xml:space="preserve">
<g>
	<path d="M223.826,226.053l-30.735-57.46c-5.697-10.651-5.837-23.441-0.377-34.212c5.459-10.774,15.858-18.223,27.818-19.927
		c39.61-5.639,32.966-4.693,52.36-7.455C258.001,46.606,203.38,1.682,138.455,1.682C62.11,1.682,0,63.793,0,140.137
		c0,76.344,62.11,138.454,138.455,138.454c26.927,0,52.077-7.734,73.362-21.087C218.172,240.861,220.449,234.896,223.826,226.053z
		 M153.455,140.137c0,5.344-2.843,10.283-7.462,12.969l-48.759,28.34c-7.173,4.168-16.348,1.723-20.506-5.432
		c-4.163-7.162-1.731-16.343,5.431-20.506l41.297-24.002V67.628c0-8.284,6.716-15,15-15c8.284,0,15,6.716,15,15V140.137z"/>
	<path d="M342.585,124.096c19.35,7.388,41.13-2.286,48.55-21.72c7.409-19.404-2.315-41.141-21.72-48.55
		c-19.404-7.409-41.141,2.315-48.55,21.72C313.456,94.95,323.181,116.687,342.585,124.096z"/>
	<path d="M448.078,282.222h-16.563c0-21.598,0.036-20.55-0.042-21.434c-0.424-4.792-4.443-8.552-9.346-8.552h-5.552
		c0.679-8.363-4.776-15.819-12.728-17.863c-6.028-1.549-51.033-13.117-57.085-14.673h0l-21.302-61.204l30.861,46.081l11.165-29.243
		c5.005-13.108-1.564-27.792-14.672-32.797l-42.326-16.161c-1.99-0.759-7.073-3.274-14.819-2.418c-0.001,0-0.002,0-0.003,0
		l-72.315,10.296c-5.506,0.784-10.283,4.205-12.797,9.166c-2.508,4.948-2.456,10.824,0.173,15.74l35.038,65.503l-14.57,38.16h0
		l0.527,0.201c-3.851,8.416-0.815,14.471,1.871,22.123l10.171,28.973l-53.125-5.796c-10.892-1.192-20.694,6.681-21.884,17.578
		c-1.189,10.896,6.681,20.694,17.578,21.883l84.439,9.213c6.727,0.738,13.435-2.019,17.699-7.391
		c4.238-5.34,5.44-12.481,3.182-18.914c-3.716-10.585-14.486-41.265-18.156-51.718l0.61,0.233
		c4.108,6.452,36.961,58.05,41.659,65.428l-29.947,84.344c-3.667,10.329,1.733,21.677,12.063,25.345
		c10.36,3.676,21.687-1.762,25.345-12.063l21.044-59.27c-12.983-1.813-23.011-12.984-23.011-26.458c0-6.268,0-58.955,0-65.233
		c0-9.569,5.073-18.057,12.789-22.792c-8.101-2.081-25.263-4.484-31.919-23.6c-0.89-2.558-0.182,2.426-8.075-72.964l23.523,67.586
		c1.948,5.596,6.58,9.547,11.851,10.902l28.105,7.224l7.255,1.865c-0.327,1.427-0.245-0.151-0.245,22.701h-16.563
		c-5.014,0-9.079,4.065-9.079,9.079v65.233c0,5.014,4.065,9.079,9.079,9.079h100.096c5.014,0,9.079-4.065,9.079-9.079v-65.233
		C457.157,286.287,453.092,282.222,448.078,282.222z M261.862,182.505l-9.598-17.945l17.396-2.477
		C266.532,170.273,268.914,164.035,261.862,182.505z M412.738,282.222h-29.417v-11.209h29.417V282.222z"/>
</g>
<g>
</g>
<g>
</g>
<g>
</g>
<g>
</g>
<g>
</g>
<g>
</g>
<g>
</g>
<g>
</g>
<g>
</g>
<g>
</g>
<g>
</g>
<g>
</g>
<g>
</g>
<g>
</g>
<g>
</g>
</svg>
