<?xml version="1.0" encoding="utf-8"?>
<!-- Generator: Adobe Illustrator 22.0.0, SVG Export Plug-In . SVG Version: 6.00 Build 0)  -->
<svg version="1.1" id="Layer_1" xmlns="http://www.w3.org/2000/svg" xmlns:xlink="http://www.w3.org/1999/xlink" x="0px" y="0px"
	 viewBox="0 0 200 200" style="enable-background:new 0 0 200 200;" xml:space="preserve">
<style type="text/css">
	.st0{fill:#FFFFFF;}
	.st1{fill:#EDEDED;}
</style>
<rect class="st0" width="200" height="200"/>
<g>
	<path class="st1" d="M97.8,108c0.1,1,1,1.8,2,1.8c0.1,0,0.1,0,0.2,0c1.1-0.1,1.9-1.1,1.8-2.2l-1-9c-0.1-1.1-1.1-1.9-2.2-1.8
		c-1.1,0.1-1.9,1.1-1.8,2.2L97.8,108z"/>
	<path class="st1" d="M110.3,109.8c0.1,0,0.1,0,0.2,0c1,0,1.9-0.8,2-1.8l1-9c0.1-1.1-0.7-2.1-1.8-2.2c-1.1-0.1-2.1,0.7-2.2,1.8l-1,9
		C108.4,108.7,109.3,109.7,110.3,109.8z"/>
	<path class="st1" d="M94.8,118.6c-3.4,0-6.2,2.8-6.2,6.2c0,3.4,2.8,6.2,6.2,6.2s6.2-2.8,6.2-6.2C101,121.4,98.2,118.6,94.8,118.6z
		 M94.8,127.1c-1.2,0-2.2-1-2.2-2.2c0-1.2,1-2.2,2.2-2.2c1.2,0,2.2,1,2.2,2.2C96.9,126,96,127.1,94.8,127.1z"/>
	<path class="st1" d="M115.5,118.6c-3.4,0-6.2,2.8-6.2,6.2c0,3.4,2.8,6.2,6.2,6.2c3.4,0,6.2-2.8,6.2-6.2
		C121.8,121.4,119,118.6,115.5,118.6z M115.5,127.1c-1.2,0-2.2-1-2.2-2.2c0-1.2,1-2.2,2.2-2.2c1.2,0,2.2,1,2.2,2.2
		C117.8,126,116.8,127.1,115.5,127.1z"/>
	<path class="st1" d="M127.6,90.1c-0.4-0.5-1-0.8-1.6-0.8H85.8l-1.7-6.5c-0.3-0.9-1-1.5-2-1.5H74c-1.1,0-2,0.9-2,2s0.9,2,2,2h6.7
		l1.7,6.4c0,0.1,0,0.1,0,0.1l6.2,23.9c0.3,0.9,1,1.5,2,1.5h29.3c0.9,0,1.7-0.6,2-1.5l6.2-24C128.1,91.3,128,90.6,127.6,90.1z
		 M118.2,113.3H92.1l-5.2-19.9h36.5L118.2,113.3z"/>
	<path class="st1" d="M97.3,83.1c0.4,0.4,0.9,0.6,1.4,0.6c0.5,0,1-0.2,1.4-0.6c0.8-0.8,0.8-2.1,0-2.9l-6.3-6.3c-0.8-0.8-2-0.8-2.9,0
		c-0.8,0.8-0.8,2.1,0,2.9L97.3,83.1z"/>
	<path class="st1" d="M111.7,83.7c0.5,0,1-0.2,1.4-0.6l6.3-6.3c0.8-0.8,0.8-2.1,0-2.9c-0.8-0.8-2.1-0.8-2.9,0l-6.3,6.3
		c-0.8,0.8-0.8,2.1,0,2.9C110.7,83.5,111.2,83.7,111.7,83.7z"/>
	<path class="st1" d="M105.1,81.8L105.1,81.8c1.1,0,2-0.9,2-2v-8.9c0-1.1-0.9-2-2-2l0,0c-1.1,0.1-2,1-2,2.1v8.9
		C103.2,80.9,104.1,81.8,105.1,81.8z"/>
</g>
</svg>
