<svg width="580" height="400" xmlns="http://www.w3.org/2000/svg" id="B1QeGVf03jM">
    <style xmlns="http://www.w3.org/1999/xhtml">
        @-webkit-keyframes B10eGVGA2oM_BJtGS0hsM_Animation{0%{-webkit-transform: scale(1, 1);transform: scale(1, 1);}26.67%{-webkit-transform: scale(1, 0);transform: scale(1, 0);}40%{-webkit-transform: scale(1, 0.5);transform: scale(1, 0.5);}53.33%{-webkit-transform: scale(1, 1);transform: scale(1, 1);}100%{-webkit-transform: scale(1, 1);transform: scale(1, 1);}}@keyframes B10eGVGA2oM_BJtGS0hsM_Animation{0%{-webkit-transform: scale(1, 1);transform: scale(1, 1);}26.67%{-webkit-transform: scale(1, 0);transform: scale(1, 0);}40%{-webkit-transform: scale(1, 0.5);transform: scale(1, 0.5);}53.33%{-webkit-transform: scale(1, 1);transform: scale(1, 1);}100%{-webkit-transform: scale(1, 1);transform: scale(1, 1);}}@-webkit-keyframes Skpgf4f0hjG_Sk0bVA2sf_Animation{0%{-webkit-transform: scale(1, 1);transform: scale(1, 1);}26.67%{-webkit-transform: scale(1, 0);transform: scale(1, 0);}40%{-webkit-transform: scale(1, 0.5);transform: scale(1, 0.5);}53.33%{-webkit-transform: scale(1, 1);transform: scale(1, 1);}100%{-webkit-transform: scale(1, 1);transform: scale(1, 1);}}@keyframes Skpgf4f0hjG_Sk0bVA2sf_Animation{0%{-webkit-transform: scale(1, 1);transform: scale(1, 1);}26.67%{-webkit-transform: scale(1, 0);transform: scale(1, 0);}40%{-webkit-transform: scale(1, 0.5);transform: scale(1, 0.5);}53.33%{-webkit-transform: scale(1, 1);transform: scale(1, 1);}100%{-webkit-transform: scale(1, 1);transform: scale(1, 1);}}@-webkit-keyframes HyolGVM0hsf_B1RPfC2oz_Animation{0%{-webkit-transform: scale(1, 1);transform: scale(1, 1);}20%{-webkit-transform: scale(1, 0.3);transform: scale(1, 0.3);}26.67%{-webkit-transform: scale(1, 0);transform: scale(1, 0);}40%{-webkit-transform: scale(1, 0.5);transform: scale(1, 0.5);}53.33%{-webkit-transform: scale(1, 1);transform: scale(1, 1);}100%{-webkit-transform: scale(1, 1);transform: scale(1, 1);}}@keyframes HyolGVM0hsf_B1RPfC2oz_Animation{0%{-webkit-transform: scale(1, 1);transform: scale(1, 1);}20%{-webkit-transform: scale(1, 0.3);transform: scale(1, 0.3);}26.67%{-webkit-transform: scale(1, 0);transform: scale(1, 0);}40%{-webkit-transform: scale(1, 0.5);transform: scale(1, 0.5);}53.33%{-webkit-transform: scale(1, 1);transform: scale(1, 1);}100%{-webkit-transform: scale(1, 1);transform: scale(1, 1);}}@-webkit-keyframes SJhezNMRnsG_S1krz0hiM_Animation{0%{-webkit-transform: scale(1, 1);transform: scale(1, 1);}20%{-webkit-transform: scale(1, 0.3);transform: scale(1, 0.3);}26.67%{-webkit-transform: scale(1, 0);transform: scale(1, 0);}40%{-webkit-transform: scale(1, 0.5);transform: scale(1, 0.5);}53.33%{-webkit-transform: scale(1, 1);transform: scale(1, 1);}100%{-webkit-transform: scale(1, 1);transform: scale(1, 1);}}@keyframes SJhezNMRnsG_S1krz0hiM_Animation{0%{-webkit-transform: scale(1, 1);transform: scale(1, 1);}20%{-webkit-transform: scale(1, 0.3);transform: scale(1, 0.3);}26.67%{-webkit-transform: scale(1, 0);transform: scale(1, 0);}40%{-webkit-transform: scale(1, 0.5);transform: scale(1, 0.5);}53.33%{-webkit-transform: scale(1, 1);transform: scale(1, 1);}100%{-webkit-transform: scale(1, 1);transform: scale(1, 1);}}#B1QeGVf03jM *{-webkit-animation-duration: 1.5s;animation-duration: 1.5s;-webkit-animation-iteration-count: infinite;animation-iteration-count: infinite;-webkit-animation-timing-function: cubic-bezier(0, 0, 1, 1);animation-timing-function: cubic-bezier(0, 0, 1, 1);transform-box: fill-box;-webkit-transform-origin: 50% 50%;transform-origin: 50% 50%;}#HkBxfVM0hsz{fill: #fff;}#rkwxMEfR3oG{fill: url(#gridpattern);stroke-width: 0;}#rktxGEz0hiz{fill: #709436;}#HJ9gMNG0noz{fill: #fa9436;}#HyolGVM0hsf{stroke: null;stroke-opacity: null;stroke-width: null;fill: #ffffff;}#SJhezNMRnsG{stroke: null;stroke-opacity: null;stroke-width: null;fill: #000000;}#Skpgf4f0hjG{stroke: null;stroke-opacity: null;stroke-width: null;fill: #ffffff;}#B10eGVGA2oM{stroke: null;stroke-opacity: null;stroke-width: null;fill: #000000;}#rJkZM4GAnof{opacity: 0.5;stroke-opacity: null;stroke-width: null;stroke: null;fill: #ffffff;}#HJgWGVGA3sM{-webkit-transform:  rotate(-180deg);transform:  rotate(-180deg);-webkit-transform-origin: 299.25164794921875,316.47186279296875%;transform-origin: 299.25164794921875,316.47186279296875%;stroke-opacity: null;stroke-width: 0;stroke: null;fill: #ffffff;}#HJ-Wz4zAhjG{-webkit-transform:  rotate(-180deg);transform:  rotate(-180deg);-webkit-transform-origin: 299.25164794921875,323.47186279296875%;transform-origin: 299.25164794921875,323.47186279296875%;stroke: null;stroke-opacity: null;stroke-width: 0;fill: #fa9436;}#SJhezNMRnsG_S1krz0hiM{-webkit-animation-name: SJhezNMRnsG_S1krz0hiM_Animation;animation-name: SJhezNMRnsG_S1krz0hiM_Animation;-webkit-transform-origin: 50% 100%;transform-origin: 50% 100%;-webkit-transform: scale(1, 1);transform: scale(1, 1);-webkit-animation-timing-function: cubic-bezier(0.42, 0, 0.58, 1);animation-timing-function: cubic-bezier(0.42, 0, 0.58, 1);}#HyolGVM0hsf_B1RPfC2oz{-webkit-animation-name: HyolGVM0hsf_B1RPfC2oz_Animation;animation-name: HyolGVM0hsf_B1RPfC2oz_Animation;-webkit-transform-origin: 50% 100%;transform-origin: 50% 100%;-webkit-transform: scale(1, 1);transform: scale(1, 1);-webkit-animation-timing-function: cubic-bezier(0.42, 0, 0.58, 1);animation-timing-function: cubic-bezier(0.42, 0, 0.58, 1);}#Skpgf4f0hjG_Sk0bVA2sf{-webkit-animation-name: Skpgf4f0hjG_Sk0bVA2sf_Animation;animation-name: Skpgf4f0hjG_Sk0bVA2sf_Animation;-webkit-transform-origin: 50% 100%;transform-origin: 50% 100%;-webkit-transform: scale(1, 1);transform: scale(1, 1);-webkit-animation-timing-function: cubic-bezier(0.42, 0, 0.58, 1);animation-timing-function: cubic-bezier(0.42, 0, 0.58, 1);}#B10eGVGA2oM_BJtGS0hsM{-webkit-animation-name: B10eGVGA2oM_BJtGS0hsM_Animation;animation-name: B10eGVGA2oM_BJtGS0hsM_Animation;-webkit-transform-origin: 50% 100%;transform-origin: 50% 100%;-webkit-transform: scale(1, 1);transform: scale(1, 1);-webkit-animation-timing-function: cubic-bezier(0.42, 0, 0.58, 1);animation-timing-function: cubic-bezier(0.42, 0, 0.58, 1);}
    </style>
    <g id="SkOeMVMRnif">
        <title>
            Layer 1
        </title>
        <path id="rktxGEz0hiz" d="m289.987764,84.265576c-3.966269,6.47471 -6.572441,12.566638 -8.225732,17.58352c-19.464851,1.539271 -34.067561,7.851095 -34.067561,15.433428c0,8.730678 19.367119,15.799921 43.254319,15.799921s43.254319,-7.077387 43.254319,-15.799921c0,-6.564297 -10.945925,-12.183856 -26.517805,-14.578277c6.694606,-13.837147 23.072771,-33.929108 63.036797,-42.619065c6.596874,-1.433395 10.76675,-7.940682 9.333355,-14.537556s-7.924393,-10.799327 -14.513123,-9.333355c-22.567825,4.902862 -39.198463,12.998285 -51.569638,22.160611c0.317627,-8.144289 -3.567199,-17.404346 -13.600963,-27.429966c-18.316506,-18.32465 -61.106601,-21.199584 -61.106601,-21.199584s2.883078,42.790095 21.199584,61.106601c10.897059,10.897059 20.881957,14.537556 29.523048,13.413644z"/>
        <path id="HJ9gMNG0noz" d="m332.460232,90.601833c-1.824321,1.555559 -3.526477,3.119263 -4.992449,4.699255c12.232722,4.919151 18.951761,12.550349 18.951761,21.981436c0,19.350831 -27.861613,28.016354 -55.470753,28.016354s-55.470753,-8.665524 -55.470753,-28.016354c0,-12.509628 11.719632,-21.753396 31.998912,-25.801108c-0.91216,-0.496802 -1.816176,-1.213499 -2.728337,-1.775455c-75.21251,2.655038 -132.719335,19.717324 -132.719335,94.620351c0,83.128759 50.738921,205.928349 157.974775,205.928349c105.590708,0 157.966631,-122.799591 157.966631,-205.928349c0.016289,-69.096149 -48.9146,-88.968214 -115.510452,-93.724479zm-152.941605,161.370944c-6.865636,0.68412 -12.973853,-4.316473 -13.657973,-11.182109c-0.692265,-6.857491 4.308329,-12.965708 11.16582,-13.649828c6.865636,-0.68412 12.981997,4.308329 13.666117,11.16582s-4.308329,12.965708 -11.173965,13.666117zm9.952321,-95.051998c-7.44388,11.573035 -9.496241,27.242647 -6.450277,49.321815c0.920305,6.678317 -3.746373,12.851688 -10.432834,13.771993c-0.154741,0.016289 -0.301339,0.032577 -0.45608,0.048866c-6.507287,0.651543 -12.420041,-3.958124 -13.315913,-10.4817c-3.89297,-28.187385 -0.68412,-49.126352 10.090774,-65.879154c3.648642,-5.676569 11.206542,-7.321716 16.883111,-3.66493c5.676569,3.648642 7.32986,11.206542 3.681219,16.883111z"/>
        <g id="HyolGVM0hsf_B1RPfC2oz" data-animator-group="true" data-animator-type="2">
            <ellipse ry="25.500001" rx="30.500001" id="HyolGVM0hsf" cy="238.000001" cx="251.000001"/>
        </g>
        <g id="SJhezNMRnsG_S1krz0hiM" data-animator-group="true" data-animator-type="2">
            <ellipse ry="11.500001" rx="19.5" id="SJhezNMRnsG" cy="253" cx="250.000001"/>
        </g>
        <g id="Skpgf4f0hjG_Sk0bVA2sf" data-animator-group="true" data-animator-type="2">
            <ellipse ry="25.500001" rx="30.500001" id="Skpgf4f0hjG" cy="239.000001" cx="345.000001"/>
        </g>
        <g id="B10eGVGA2oM_BJtGS0hsM" data-animator-group="true" data-animator-type="2">
            <ellipse ry="11.500001" rx="19.5" id="B10eGVGA2oM" cy="253" cx="344.000001"/>
        </g>
        <path id="rJkZM4GAnof" d="m23.5,76.5c57.502174,57.502174 131.095385,0 130.5,-0.5c0.595385,0.5 -57.5,-28.5 -58,-29"/>
        <path id="HJgWGVGA3sM" d="m239.5,303.5c59.539903,59.539903 120.016666,0 119.5,-0.5"/>
        <path id="HJ-Wz4zAhjG" d="m239.5,316.277314c59.5399,33.022422 120.01667,0 119.5,-0.277313"/>
    </g>
</svg>